  0
SECTION
  2
HEADER
  9
$ACADVER
  1
AC1009
  9
$FILLMODE
 70
0
  9
$EXTMIN
 10
0.0000
 20
0.0000
 30
0.0000
  9
$EXTMAX
 10
164.0000
 20
120.6500
 30
0.0000
  0
ENDSEC
  0
SECTION
  2
TABLES
  0
TABLE
  2
LTYPE
 70
1
  0
LTYPE
  2
CONTINUOUS
 70
64
  3
Solid line
 72
65
 73
0
 40
0
  0
ENDTAB
  0
TABLE
  2
LAYER
 70
255
  0
LAYER
  2
1
 70
64
 62
12
  6
CONTINUOUS
  0
LAYER
  2
17
 70
64
 62
110
  6
CONTINUOUS
  0
LAYER
  2
20
 70
64
 62
31
  6
CONTINUOUS
  0
LAYER
  2
129
 70
64
 62
253
  6
CONTINUOUS
  0
LAYER
  2
225
 70
64
 62
253
  6
CONTINUOUS
  0
LAYER
  2
226
 70
64
 62
253
  6
CONTINUOUS
  0
LAYER
  2
227
 70
64
 62
253
  6
CONTINUOUS
  0
LAYER
  2
228
 70
64
 62
253
  6
CONTINUOUS
  0
LAYER
  2
229
 70
64
 62
253
  6
CONTINUOUS
  0
LAYER
  2
230
 70
64
 62
253
  6
CONTINUOUS
  0
LAYER
  2
255
 70
64
 62
253
  6
CONTINUOUS
  0
ENDTAB
  0
ENDSEC
  0
SECTION
  2
BLOCKS
  0
BLOCK
  8
0
  2
RECT
 70
64
 10
0.0000
 20
0.0000
 30
0.0000
  3
RECT
  0
SOLID
  8
0
 10
-0.5000
 20
-0.5000
 30
0.0000
 11
0.5000
 21
-0.5000
 31
0.0000
 12
-0.5000
 22
0.5000
 32
0.0000
 13
0.5000
 23
0.5000
 33
0.0000
  0
ENDBLK
  8
0
  0
BLOCK
  8
0
  2
PIE
 70
64
 10
0.0000
 20
0.0000
 30
0.0000
  3
PIE
  0
CIRCLE
  8
0
 10
0.0000
 20
0.0000
 30
0.0000
 40
0.5000
  0
ENDBLK
  8
0
  0
BLOCK
  8
0
  2
OCTAGONP
 70
64
 10
0.0000
 20
0.0000
 30
0.0000
  3
OCTAGONP
  0
POLYLINE
  8
0
 66
1
 10
0.0000
 20
0.0000
 30
0.0000
 40
0.0000
 41
0.0000
 70
1
  0
VERTEX
  8
0
 10
-0.5000
 20
-0.2071
 30
0.0000
  0
VERTEX
  8
0
 10
-0.5000
 20
0.2071
 30
0.0000
  0
VERTEX
  8
0
 10
-0.2071
 20
0.5000
 30
0.0000
  0
VERTEX
  8
0
 10
0.2071
 20
0.5000
 30
0.0000
  0
VERTEX
  8
0
 10
0.5000
 20
0.2071
 30
0.0000
  0
VERTEX
  8
0
 10
0.5000
 20
-0.2071
 30
0.0000
  0
VERTEX
  8
0
 10
0.2071
 20
-0.5000
 30
0.0000
  0
VERTEX
  8
0
 10
-0.2071
 20
-0.5000
 30
0.0000
  0
SEQEND
  8
0
  0
ENDBLK
  8
0
  0
BLOCK
  8
0
  2
SQUAREP
 70
64
 10
0.0000
 20
0.0000
 30
0.0000
  3
SQUAREP
  0
SOLID
  8
0
 10
-0.5000
 20
-0.5000
 30
0.0000
 11
0.5000
 21
-0.5000
 31
0.0000
 12
-0.5000
 22
0.5000
 32
0.0000
 13
0.5000
 23
0.5000
 33
0.0000
  0
ENDBLK
  8
0
  0
BLOCK
  8
0
  2
ROUNDP
 70
64
 10
0.0000
 20
0.0000
 30
0.0000
  3
ROUNDP
  0
CIRCLE
  8
0
 10
0.0000
 20
0.0000
 30
0.0000
 40
0.5000
  0
ENDBLK
  8
0
  0
BLOCK
  8
0
  2
ANNULUSP
 70
64
 10
0.0000
 20
0.0000
 30
0.0000
  3
ANNULUSP
  0
CIRCLE
  8
0
 10
0.0000
 20
0.0000
 30
0.0000
 40
0.5000
  0
ENDBLK
  8
0
  0
BLOCK
  8
0
  2
THERMALP
 70
64
 10
0.0000
 20
0.0000
 30
0.0000
  3
THERMALP
  0
LINE
  8
0
 10
-0.2379
 20
0.4500
 30
0.0000
 11
0.2379
 21
0.4500
 31
0.0000
  0
LINE
  8
0
 10
0.4500
 20
0.2379
 30
0.0000
 11
0.4500
 21
-0.2379
 31
0.0000
  0
LINE
  8
0
 10
0.2379
 20
-0.4500
 30
0.0000
 11
-0.2379
 21
-0.4500
 31
0.0000
  0
LINE
  8
0
 10
-0.4500
 20
-0.2379
 30
0.0000
 11
-0.4500
 21
0.2379
 31
0.0000
  0
ENDBLK
  8
0
  0
BLOCK
  8
0
  2
OCTAGONV
 70
64
 10
0.0000
 20
0.0000
 30
0.0000
  3
OCTAGONV
  0
POLYLINE
  8
0
 66
1
 10
0.0000
 20
0.0000
 30
0.0000
 40
0.0000
 41
0.0000
 70
1
  0
VERTEX
  8
0
 10
-0.5000
 20
-0.2071
 30
0.0000
  0
VERTEX
  8
0
 10
-0.5000
 20
0.2071
 30
0.0000
  0
VERTEX
  8
0
 10
-0.2071
 20
0.5000
 30
0.0000
  0
VERTEX
  8
0
 10
0.2071
 20
0.5000
 30
0.0000
  0
VERTEX
  8
0
 10
0.5000
 20
0.2071
 30
0.0000
  0
VERTEX
  8
0
 10
0.5000
 20
-0.2071
 30
0.0000
  0
VERTEX
  8
0
 10
0.2071
 20
-0.5000
 30
0.0000
  0
VERTEX
  8
0
 10
-0.2071
 20
-0.5000
 30
0.0000
  0
SEQEND
  8
0
  0
ENDBLK
  8
0
  0
BLOCK
  8
0
  2
SQUAREV
 70
64
 10
0.0000
 20
0.0000
 30
0.0000
  3
SQUAREV
  0
SOLID
  8
0
 10
-0.5000
 20
-0.5000
 30
0.0000
 11
0.5000
 21
-0.5000
 31
0.0000
 12
-0.5000
 22
0.5000
 32
0.0000
 13
0.5000
 23
0.5000
 33
0.0000
  0
ENDBLK
  8
0
  0
BLOCK
  8
0
  2
ROUNDV
 70
64
 10
0.0000
 20
0.0000
 30
0.0000
  3
ROUNDV
  0
CIRCLE
  8
0
 10
0.0000
 20
0.0000
 30
0.0000
 40
0.5000
  0
ENDBLK
  8
0
  0
BLOCK
  8
0
  2
ANNULUSV
 70
64
 10
0.0000
 20
0.0000
 30
0.0000
  3
ANNULUSV
  0
CIRCLE
  8
0
 10
0.0000
 20
0.0000
 30
0.0000
 40
0.5000
  0
ENDBLK
  8
0
  0
BLOCK
  8
0
  2
THERMALV
 70
64
 10
0.0000
 20
0.0000
 30
0.0000
  3
THERMALV
  0
LINE
  8
0
 10
-0.2379
 20
0.4500
 30
0.0000
 11
0.2379
 21
0.4500
 31
0.0000
  0
LINE
  8
0
 10
0.4500
 20
0.2379
 30
0.0000
 11
0.4500
 21
-0.2379
 31
0.0000
  0
LINE
  8
0
 10
0.2379
 20
-0.4500
 30
0.0000
 11
-0.2379
 21
-0.4500
 31
0.0000
  0
LINE
  8
0
 10
-0.4500
 20
-0.2379
 30
0.0000
 11
-0.4500
 21
0.2379
 31
0.0000
  0
ENDBLK
  8
0
  0
BLOCK
  8
0
  2
LONGP100
 70
64
 10
0.0000
 20
0.0000
 30
0.0000
  3
LONGP100
  0
POLYLINE
  8
0
 66
1
 10
0.0000
 20
0.0000
 30
0.0000
 40
0.0000
 41
0.0000
 70
1
  0
VERTEX
  8
0
 10
-0.5000
 20
-0.5000
 30
0.0000
  0
VERTEX
  8
0
 10
0.5000
 20
-0.5000
 30
0.0000
 42
1.0000
  0
VERTEX
  8
0
 10
0.5000
 20
0.5000
 30
0.0000
  0
VERTEX
  8
0
 10
-0.5000
 20
0.5000
 30
0.0000
 42
1.0000
  0
SEQEND
  8
0
  0
ENDBLK
  8
0
  0
ENDSEC
  0
SECTION
  2
ENTITIES
  0
LINE
  8
20
 10
0.0000
 20
111.0000
 30
0.0000
 11
0.0000
 21
3.0000
 31
0.0000
  0
ARC
  8
20
 10
3.0000
 20
3.0000
 30
0.0000
 40
3.0000
 50
180.0000
 51
270.0000
  0
LINE
  8
20
 10
3.0000
 20
0.0000
 30
0.0000
 11
161.0000
 21
0.0000
 31
0.0000
  0
ARC
  8
20
 10
161.0000
 20
3.0000
 30
0.0000
 40
3.0000
 50
270.0000
 51
0.0000
  0
LINE
  8
20
 10
164.0000
 20
3.0000
 30
0.0000
 11
164.0000
 21
111.0000
 31
0.0000
  0
ARC
  8
20
 10
161.0000
 20
111.0000
 30
0.0000
 40
3.0000
 50
0.0000
 51
90.0000
  0
LINE
  8
20
 10
161.0000
 20
114.0000
 30
0.0000
 11
120.9226
 21
114.0000
 31
0.0000
  0
ARC
  8
20
 10
120.9226
 20
117.0000
 30
0.0000
 40
3.0000
 50
225.0000
 51
270.0000
  0
LINE
  8
20
 10
118.8013
 20
114.8787
 30
0.0000
 11
113.9087
 21
119.7713
 31
0.0000
  0
ARC
  8
20
 10
111.7874
 20
117.6500
 30
0.0000
 40
3.0000
 50
45.0001
 51
90.0000
  0
LINE
  8
20
 10
111.7874
 20
120.6500
 30
0.0000
 11
52.0426
 21
120.6500
 31
0.0000
  0
ARC
  8
20
 10
52.0426
 20
117.6500
 30
0.0000
 40
3.0000
 50
90.0000
 51
135.0000
  0
LINE
  8
20
 10
49.9213
 20
119.7713
 30
0.0000
 11
45.0287
 21
114.8787
 31
0.0000
  0
ARC
  8
20
 10
42.9074
 20
117.0000
 30
0.0000
 40
3.0000
 50
270.0000
 51
314.9999
  0
LINE
  8
20
 10
42.9074
 20
114.0000
 30
0.0000
 11
3.0000
 21
114.0000
 31
0.0000
  0
ARC
  8
20
 10
3.0000
 20
111.0000
 30
0.0000
 40
3.0000
 50
90.0000
 51
180.0000
  0
CIRCLE
  8
20
 10
5.0500
 20
5.0500
 30
0.0000
 40
1.7500
  0
CIRCLE
  8
20
 10
158.9500
 20
5.0500
 30
0.0000
 40
1.7500
  0
CIRCLE
  8
20
 10
5.0500
 20
108.9500
 30
0.0000
 40
1.7500
  0
CIRCLE
  8
20
 10
158.9500
 20
108.9500
 30
0.0000
 40
1.7500
  0
CIRCLE
  8
20
 10
82.0000
 20
108.9500
 30
0.0000
 40
1.7500
  0
CIRCLE
  8
20
 10
82.0000
 20
5.0500
 30
0.0000
 40
1.7500
  0
CIRCLE
  8
20
 10
30.0500
 20
108.9500
 30
0.0000
 40
1.7500
  0
CIRCLE
  8
20
 10
30.0500
 20
5.0500
 30
0.0000
 40
1.7500
  0
CIRCLE
  8
20
 10
5.0500
 20
30.0500
 30
0.0000
 40
1.7500
  0
CIRCLE
  8
20
 10
158.9500
 20
30.0500
 30
0.0000
 40
1.7500
  0
CIRCLE
  8
20
 10
133.0500
 20
5.0500
 30
0.0000
 40
1.7500
  0
CIRCLE
  8
20
 10
133.9500
 20
108.9500
 30
0.0000
 40
1.7500
  0
CIRCLE
  8
20
 10
5.0500
 20
83.9500
 30
0.0000
 40
1.7500
  0
CIRCLE
  8
20
 10
158.9500
 20
83.9500
 30
0.0000
 40
1.7500
  0
CIRCLE
  8
20
 10
82.0000
 20
57.0000
 30
0.0000
 40
0.8000
  0
CIRCLE
  8
20
 10
17.5000
 20
108.9500
 30
0.0000
 40
1.0000
  0
CIRCLE
  8
20
 10
17.5000
 20
5.0500
 30
0.0000
 40
1.0000
  0
CIRCLE
  8
20
 10
5.0500
 20
17.5500
 30
0.0000
 40
1.0000
  0
CIRCLE
  8
20
 10
158.9500
 20
17.5500
 30
0.0000
 40
1.0000
  0
CIRCLE
  8
20
 10
146.4500
 20
5.0500
 30
0.0000
 40
1.0000
  0
CIRCLE
  8
20
 10
146.4500
 20
108.9500
 30
0.0000
 40
1.0000
  0
CIRCLE
  8
20
 10
5.0500
 20
96.4500
 30
0.0000
 40
1.0000
  0
CIRCLE
  8
20
 10
158.9500
 20
96.4500
 30
0.0000
 40
1.0000
  0
CIRCLE
  8
20
 10
95.2500
 20
116.8400
 30
0.0000
 40
1.5000
  0
CIRCLE
  8
20
 10
88.9000
 20
116.8400
 30
0.0000
 40
1.5000
  0
CIRCLE
  8
20
 10
68.5800
 20
116.8400
 30
0.0000
 40
1.5000
  0
CIRCLE
  8
20
 10
74.9300
 20
116.8400
 30
0.0000
 40
1.5000
  0
INSERT
  8
17
  2
OCTAGONP
 10
110.4900
 20
115.5700
 30
0.0000
 41
1.5240
 42
1.5240
 43
1.0000
 50
180.0000
  0
INSERT
  8
17
  2
OCTAGONP
 10
110.4900
 20
118.1100
 30
0.0000
 41
1.5240
 42
1.5240
 43
1.0000
 50
180.0000
  0
INSERT
  8
17
  2
OCTAGONP
 10
107.9500
 20
115.5700
 30
0.0000
 41
1.5240
 42
1.5240
 43
1.0000
 50
180.0000
  0
INSERT
  8
17
  2
OCTAGONP
 10
107.9500
 20
118.1100
 30
0.0000
 41
1.5240
 42
1.5240
 43
1.0000
 50
180.0000
  0
INSERT
  8
17
  2
OCTAGONP
 10
105.4100
 20
115.5700
 30
0.0000
 41
1.5240
 42
1.5240
 43
1.0000
 50
180.0000
  0
INSERT
  8
17
  2
OCTAGONP
 10
105.4100
 20
118.1100
 30
0.0000
 41
1.5240
 42
1.5240
 43
1.0000
 50
180.0000
  0
INSERT
  8
17
  2
OCTAGONP
 10
102.8700
 20
115.5700
 30
0.0000
 41
1.5240
 42
1.5240
 43
1.0000
 50
180.0000
  0
INSERT
  8
17
  2
OCTAGONP
 10
102.8700
 20
118.1100
 30
0.0000
 41
1.5240
 42
1.5240
 43
1.0000
 50
180.0000
  0
INSERT
  8
17
  2
OCTAGONP
 10
100.3300
 20
115.5700
 30
0.0000
 41
1.5240
 42
1.5240
 43
1.0000
 50
180.0000
  0
INSERT
  8
17
  2
OCTAGONP
 10
100.3300
 20
118.1100
 30
0.0000
 41
1.5240
 42
1.5240
 43
1.0000
 50
180.0000
  0
INSERT
  8
17
  2
OCTAGONP
 10
63.5000
 20
115.5700
 30
0.0000
 41
1.5240
 42
1.5240
 43
1.0000
 50
180.0000
  0
INSERT
  8
17
  2
OCTAGONP
 10
63.5000
 20
118.1100
 30
0.0000
 41
1.5240
 42
1.5240
 43
1.0000
 50
180.0000
  0
INSERT
  8
17
  2
OCTAGONP
 10
60.9600
 20
115.5700
 30
0.0000
 41
1.5240
 42
1.5240
 43
1.0000
 50
180.0000
  0
INSERT
  8
17
  2
OCTAGONP
 10
60.9600
 20
118.1100
 30
0.0000
 41
1.5240
 42
1.5240
 43
1.0000
 50
180.0000
  0
INSERT
  8
17
  2
OCTAGONP
 10
58.4200
 20
115.5700
 30
0.0000
 41
1.5240
 42
1.5240
 43
1.0000
 50
180.0000
  0
INSERT
  8
17
  2
OCTAGONP
 10
58.4200
 20
118.1100
 30
0.0000
 41
1.5240
 42
1.5240
 43
1.0000
 50
180.0000
  0
INSERT
  8
17
  2
OCTAGONP
 10
55.8800
 20
115.5700
 30
0.0000
 41
1.5240
 42
1.5240
 43
1.0000
 50
180.0000
  0
INSERT
  8
17
  2
OCTAGONP
 10
55.8800
 20
118.1100
 30
0.0000
 41
1.5240
 42
1.5240
 43
1.0000
 50
180.0000
  0
INSERT
  8
17
  2
OCTAGONP
 10
53.3400
 20
115.5700
 30
0.0000
 41
1.5240
 42
1.5240
 43
1.0000
 50
180.0000
  0
INSERT
  8
17
  2
OCTAGONP
 10
53.3400
 20
118.1100
 30
0.0000
 41
1.5240
 42
1.5240
 43
1.0000
 50
180.0000
  0
INSERT
  8
17
  2
LONGP100
 10
80.7300
 20
115.5700
 30
0.0000
 41
1.5240
 42
1.5240
 43
1.0000
 50
270.0000
  0
INSERT
  8
17
  2
LONGP100
 10
83.2700
 20
115.5700
 30
0.0000
 41
1.5240
 42
1.5240
 43
1.0000
 50
270.0000
  0
ENDSEC
  0
EOF
